<svg xmlns="http://www.w3.org/2000/svg" viewBox="0 0 32 32" id="mdf-file">
  <defs>
    <linearGradient id="a" x1="25.56" x2="4.03" y1="27.97" y2="6.44" gradientUnits="userSpaceOnUse">
      <stop offset="0" stop-color="#007bff"></stop>
      <stop offset="1" stop-color="#d615ff"></stop>
    </linearGradient>
  </defs>
  <path d="M8.5 6a.5.5 0 0 1 .5-.5h5a.5.5 0 0 1 0 1H9a.5.5 0 0 1-.5-.5M16 8.5H9a.5.5 0 0 0 0 1h7a.5.5 0 0 0 0-1m-7 15h9a.5.5 0 0 0 0-1H9a.5.5 0 0 0 0 1m14-1h-3a.5.5 0 0 0 0 1h3a.5.5 0 0 0 0-1m-2 3H9a.5.5 0 0 0 0 1h12a.5.5 0 0 0 0-1M27.5 13v9a2.5 2.5 0 0 1-2 2.45V27a2.5 2.5 0 0 1-2.5 2.5H9A2.5 2.5 0 0 1 6.5 27v-2.55a2.5 2.5 0 0 1-2-2.45v-9a2.5 2.5 0 0 1 2-2.45V5A2.5 2.5 0 0 1 9 2.5h10.13a.4.4 0 0 1 .22.12l6 6a.4.4 0 0 1 .12.22s0 0 0 .06v1.62A2.5 2.5 0 0 1 27.5 13m-8-8.79V8a.5.5 0 0 0 .5.5h3.79Zm-12 6.29h17v-1H20A1.5 1.5 0 0 1 18.5 8V3.5H9A1.5 1.5 0 0 0 7.5 5Zm-2 8.5A1.5 1.5 0 0 0 7 20.5h18a1.5 1.5 0 0 0 1.5-1.5v-6a1.5 1.5 0 0 0-1.5-1.5H7A1.5 1.5 0 0 0 5.5 13Zm1 4.41v-2a2.5 2.5 0 0 1-1-.46v1a1.51 1.51 0 0 0 1 1.46m18-1.91h-17V27A1.5 1.5 0 0 0 9 28.5h14a1.5 1.5 0 0 0 1.5-1.5Zm2 .5v-1a2.5 2.5 0 0 1-1 .46v2a1.51 1.51 0 0 0 1-1.46M9 19a.5.5 0 0 0 .5-.5v-3.79l1.15 1.14a.48.48 0 0 0 .7 0l1.15-1.14v3.79a.5.5 0 0 0 1 0v-5a.5.5 0 0 0-.31-.46.48.48 0 0 0-.54.11L11 14.79l-1.65-1.64a.48.48 0 0 0-.54-.15.5.5 0 0 0-.31.46v5A.5.5 0 0 0 9 19m5.5-.5v-5a.5.5 0 0 1 .5-.5h.5a3 3 0 0 1 0 6H15a.5.5 0 0 1-.5-.5m1-.5a2 2 0 0 0 0-4Zm4.5 1a.5.5 0 0 0 .5-.5V16H23a.5.5 0 0 0 0-1h-2.5v-1H23a.5.5 0 0 0 0-1h-3a.5.5 0 0 0-.5.5v5a.5.5 0 0 0 .5.5" style="fill:url(#a)"></path>
</svg>
